<?xml version="1.0" encoding="utf-8"?>
<!-- Generator: Adobe Illustrator 24.0.1, SVG Export Plug-In . SVG Version: 6.00 Build 0)  -->
<svg version="1.1" id="图层_1" xmlns="http://www.w3.org/2000/svg" xmlns:xlink="http://www.w3.org/1999/xlink" x="0px" y="0px"
	 viewBox="0 0 960 540" style="enable-background:new 0 0 960 540;" xml:space="preserve">
<style type="text/css">
	.st0{clip-path:url(#SVGID_2_);fill:#FFFFFF;}
	.st1{fill:#FFFFFF;}
	.st2{fill:none;stroke:#000000;stroke-width:2;stroke-miterlimit:8;}
	.st3{font-family:'TimesNewRomanPSMT';}
	.st4{font-size:24px;}
	.st5{font-size:20px;}
</style>
<g>
	<defs>
		<rect id="SVGID_1_" width="959.76" height="540"/>
	</defs>
	<clipPath id="SVGID_2_">
		<use xlink:href="#SVGID_1_"  style="overflow:visible;"/>
	</clipPath>
	<rect class="st0" width="959.76" height="540"/>
</g>
<rect class="st1" width="960" height="540"/>
<ellipse class="st2" cx="263.86" cy="262.59" rx="23.17" ry="22.48"/>
<text transform="matrix(1 0 0 1 257.7271 270.96)" class="st3 st4">0</text>
<ellipse class="st2" cx="390.39" cy="375.73" rx="23.17" ry="22.48"/>
<text transform="matrix(1 0 0 1 384.2603 384.2402)" class="st3 st4">2</text>
<ellipse class="st2" cx="542.83" cy="157.93" rx="23.17" ry="22.48"/>
<text transform="matrix(1 0 0 1 536.7021 166.3198)" class="st3 st4">3</text>
<ellipse class="st2" cx="543.21" cy="375.73" rx="23.17" ry="22.48"/>
<text transform="matrix(1 0 0 1 537.0771 384.2402)" class="st3 st4">4</text>
<ellipse class="st2" cx="390.39" cy="157.93" rx="23.17" ry="22.48"/>
<text transform="matrix(1 0 0 1 384.2603 166.3198)" class="st3 st4">1</text>
<ellipse class="st2" cx="390.39" cy="157.93" rx="18.73" ry="18.18"/>
<ellipse class="st2" cx="679.15" cy="157.93" rx="23.17" ry="22.48"/>
<text transform="matrix(1 0 0 1 673.0244 166.3198)" class="st3 st4">5</text>
<ellipse class="st2" cx="679.15" cy="157.93" rx="18.73" ry="18.18"/>
<ellipse class="st2" cx="679.15" cy="375.73" rx="23.17" ry="22.48"/>
<text transform="matrix(1 0 0 1 673.0244 384.2402)" class="st3 st4">6</text>
<ellipse class="st2" cx="679.15" cy="375.73" rx="18.73" ry="18.18"/>
<path d="M368.96,183.81l5.04-9.98L363,175.78L368.96,183.81z M279.12,245.6l88.26-65.6l-1.19-1.61L277.93,244L279.12,245.6z"/>
<path d="M370.31,347.37l4.62,10.18l-10.92-2.41L370.31,347.37z M278.52,278.1l90.04,73.01l-1.26,1.55l-90.04-73.01L278.52,278.1z"/>
<path d="M509.66,152.93l10,5l-10,5V152.93z M414.52,156.93l96.13,0v2l-96.13,0V156.93z"/>
<path d="M405.07,347.66l-1.36,11.1l9.7-5.57L405.07,347.66z M525.61,173.28L407.85,350.7l1.67,1.11l117.76-177.42L525.61,173.28z"/>
<path d="M510.03,380.73l10-5l-10-5V380.73z M413.56,376.73h97.47v-2h-97.47V376.73z"/>
<path d="M537.85,190.43l4.98-10.01l5.02,9.99L537.85,190.43z M542.21,353.25l-0.35-163.83l2,0l0.35,163.83L542.21,353.25z"/>
<path d="M554.21,190.5l-1.12-11.12l9.57,5.78L554.21,190.5z M664.98,358.25L557.06,187.52l1.69-1.07l107.92,170.73L664.98,358.25z"
	/>
<path d="M684.02,347.49l-4.86,10.07l-5.14-9.93L684.02,347.49z M677.75,180.4l2.28,168.14l-2,0.03l-2.28-168.14L677.75,180.4z"/>
<path d="M230.05,256.22l10,5l-10,5V256.22z M181.57,260.22h49.49v2h-49.49V260.22z"/>
<text transform="matrix(1 0 0 1 262.5532 203.7598)" class="st3 st5">Nombre</text>
<text transform="matrix(1 0 0 1 433.9517 369.6006)" class="st3 st5">Nombre</text>
<text transform="matrix(1 0 0 1 577.8525 119.7598)" class="st3 st5">Nombre</text>
<text transform="matrix(1 0 0 1 452.0698 150.2397)" class="st3 st5">OP</text>
<path d="M654.08,135.9l6.44,9.14l-11.18-0.33L654.08,135.9z M559.87,141.04l5.88-3.21l5.9-3.11l5.94-2.9l2.99-1.34l3.01-1.25
	l3.02-1.14l3.04-1.02l3.06-0.89l3.08-0.74l3.11-0.58l3.13-0.4l3.16-0.21l3.18-0.01l3.21,0.21l3.22,0.41l3.24,0.6l3.25,0.78
	l3.27,0.94l3.28,1.08l3.29,1.22l3.3,1.34l3.31,1.44l3.32,1.54l6.64,3.29l5.37,2.84l-0.93,1.77l-5.36-2.83l0.02,0.01l-6.61-3.28
	l0.02,0.01l-3.29-1.53l0.02,0.01l-3.28-1.43l0.02,0.01l-3.27-1.33l0.03,0.01l-3.26-1.21l0.03,0.01l-3.24-1.07l0.04,0.01l-3.23-0.92
	l0.04,0.01l-3.21-0.76l0.05,0.01l-3.19-0.59l0.06,0.01l-3.17-0.4l0.06,0.01l-3.14-0.2l0.07,0l-3.12,0.01l0.06,0l-3.1,0.21l0.06-0.01
	l-3.07,0.39l0.06-0.01l-3.05,0.57l0.05-0.01l-3.04,0.73l0.05-0.01l-3.02,0.88l0.04-0.01l-3,1.01l0.03-0.01l-2.99,1.13l0.03-0.01
	l-2.98,1.24l0.03-0.01l-2.97,1.33l0.03-0.01l-5.91,2.89l0.03-0.01l-5.88,3.1l0.01-0.01l-5.87,3.21L559.87,141.04z"/>
<path d="M567.34,178.59l-6.44-9.14l11.18,0.33L567.34,178.59z M661.56,173.46l-5.88,3.21l-5.9,3.11l-5.94,2.9l-3,1.34l-3.01,1.25
	l-3.02,1.14l-3.04,1.02l-3.06,0.89l-3.08,0.74l-3.11,0.58l-3.13,0.4l-3.16,0.21l-3.18,0.01l-3.21-0.21l-3.22-0.41l-3.24-0.6
	l-3.25-0.78l-3.27-0.94l-3.28-1.08l-3.29-1.22l-3.3-1.34l-3.31-1.44l-3.32-1.54l-6.64-3.29l-5.37-2.84l0.93-1.77l5.36,2.83
	l-0.02-0.01l6.61,3.28l-0.02-0.01l3.29,1.53l-0.02-0.01l3.28,1.43l-0.02-0.01l3.27,1.33l-0.03-0.01l3.26,1.21l-0.03-0.01l3.24,1.07
	l-0.04-0.01l3.23,0.92l-0.04-0.01l3.21,0.76l-0.05-0.01l3.19,0.59l-0.06-0.01l3.17,0.4l-0.06-0.01l3.14,0.2l-0.07,0l3.12-0.01
	l-0.06,0l3.1-0.21l-0.06,0.01l3.07-0.39l-0.06,0.01l3.05-0.57l-0.05,0.01l3.04-0.73l-0.05,0.01l3.02-0.88l-0.04,0.01l3-1.01
	l-0.03,0.01l2.99-1.13l-0.03,0.01l2.98-1.24l-0.03,0.01l2.97-1.33l-0.03,0.01l5.91-2.89l-0.03,0.01l5.88-3.1l-0.01,0.01l5.87-3.21
	L661.56,173.46z"/>
<text transform="matrix(1 0 0 1 602.0527 181.1997)" class="st3 st5">OP</text>
<text transform="matrix(1 0 0 1 609.9111 261.1201)" class="st3 st5">OP</text>
<text transform="matrix(1 0 0 1 547.3398 285.8398)" class="st3 st5">OP</text>
<path d="M395.29,408.74l0.19-11.18l8.83,6.86L395.29,408.74z M383.84,395.96l-3.11,5.73l0.01-0.01l-3,5.68l0.01-0.02l-2.78,5.58
	l0.01-0.02l-1.27,2.74l0.01-0.02l-1.18,2.7l0.01-0.03l-1.07,2.65l0.01-0.03l-0.94,2.59l0.01-0.04l-0.81,2.53l0.01-0.05l-0.65,2.46
	l0.01-0.06l-0.49,2.39l0.01-0.07l-0.31,2.31l0.01-0.08l-0.12,2.23l0-0.09l0.09,2.13l-0.01-0.12l0.34,2.11l-0.02-0.11l0.6,2.15
	l-0.03-0.09l0.84,2.16l-0.03-0.08l1.05,2.15l-0.03-0.06l1.24,2.12l-0.04-0.06l1.39,2.06l-0.04-0.05l1.52,1.98l-0.04-0.04l1.62,1.88
	l-0.04-0.04l1.7,1.75l-0.04-0.04l1.74,1.6l-0.05-0.04l1.76,1.42l-0.06-0.04l1.75,1.22l-0.07-0.04l1.71,1l-0.09-0.05l1.65,0.75
	l-0.12-0.05l1.56,0.48l-0.17-0.04l1.44,0.19l-0.21,0l1.44-0.12l-0.17,0.03l1.56-0.42l-0.13,0.04l1.65-0.69l-0.09,0.05l1.71-0.93
	l-0.07,0.04l1.75-1.16l-0.06,0.04l1.76-1.36l-0.05,0.04l1.74-1.53l-0.04,0.04l1.7-1.68l-0.04,0.04l1.62-1.81l-0.04,0.05l1.52-1.92
	l-0.04,0.05l1.39-2l-0.04,0.06l1.24-2.06l-0.04,0.07l1.05-2.09l-0.04,0.08l0.84-2.1l-0.03,0.09l0.6-2.09l-0.03,0.12l0.34-2.05
	l-0.01,0.15l0.02-2.16l0.01,0.13l-0.3-2.41l0.02,0.09l-0.58-2.62l0.02,0.07l-0.81-2.78l0.02,0.05l-1.01-2.91l0.01,0.04l-1.17-2.99
	l0.01,0.03l-1.29-3.02l0.01,0.02l-1.38-3.02l0.01,0.02l-1.42-2.97l0.01,0.01l-1.42-2.88l0,0.01l-1.38-2.74l-1.03-2.08l1.79-0.89
	l1.03,2.08l0-0.01l1.38,2.75l1.42,2.89l1.42,2.98l1.38,3.04l1.31,3.05l1.19,3.02l1.03,2.95l0.83,2.84l0.59,2.7l0.31,2.52l-0.02,2.3
	l-0.36,2.18l-0.63,2.19l-0.88,2.19l-1.09,2.16l-1.27,2.12l-1.43,2.05l-1.56,1.97l-1.66,1.86l-1.74,1.73l-1.79,1.57l-1.81,1.4
	l-1.82,1.2l-1.8,0.98l-1.76,0.73l-1.71,0.46l-1.63,0.14l-1.63-0.21l-1.7-0.53l-1.75-0.8l-1.79-1.05l-1.81-1.27l-1.81-1.46
	l-1.79-1.64l-1.74-1.79l-1.66-1.92l-1.56-2.03l-1.43-2.12l-1.27-2.18l-1.09-2.23l-0.88-2.25l-0.63-2.25l-0.36-2.23l-0.09-2.24
	l0.12-2.31l0.32-2.39l0.5-2.45l0.67-2.52l0.82-2.57l0.96-2.63l1.08-2.68l1.19-2.72l1.28-2.76l2.79-5.61l3.01-5.7l3.11-5.74
	L383.84,395.96z"/>
<path d="M684.2,408.74l0.19-11.18l8.83,6.86L684.2,408.74z M672.74,395.96l-3.11,5.73l0.01-0.01l-3,5.68l0.01-0.02l-2.78,5.58
	l0.01-0.02l-1.27,2.74l0.01-0.02l-1.18,2.7l0.01-0.03l-1.07,2.65l0.01-0.03l-0.94,2.59l0.01-0.04l-0.81,2.53l0.01-0.05l-0.66,2.46
	l0.01-0.06l-0.49,2.39l0.01-0.07l-0.31,2.31l0.01-0.08l-0.12,2.23l0-0.09l0.09,2.13l-0.01-0.12l0.34,2.11l-0.02-0.11l0.6,2.15
	l-0.03-0.09l0.84,2.16l-0.03-0.08l1.05,2.15l-0.03-0.06l1.24,2.12l-0.03-0.06l1.39,2.06l-0.04-0.05l1.52,1.98l-0.04-0.04l1.62,1.88
	l-0.04-0.04l1.7,1.75l-0.04-0.04l1.74,1.6l-0.05-0.04l1.76,1.42l-0.06-0.04l1.75,1.22l-0.07-0.04l1.71,1l-0.09-0.05l1.65,0.75
	l-0.12-0.05l1.56,0.48l-0.17-0.04l1.44,0.19l-0.21,0l1.44-0.12l-0.17,0.03l1.56-0.42l-0.13,0.04l1.65-0.69l-0.09,0.05l1.71-0.93
	l-0.07,0.04l1.75-1.16l-0.06,0.04l1.76-1.36l-0.05,0.04l1.74-1.53l-0.04,0.04l1.7-1.68l-0.04,0.04l1.62-1.81l-0.04,0.05l1.52-1.92
	l-0.04,0.05l1.39-2l-0.04,0.06l1.24-2.06l-0.04,0.07l1.05-2.09l-0.04,0.08l0.84-2.1l-0.03,0.09l0.6-2.09l-0.03,0.12l0.34-2.05
	l-0.01,0.15l0.02-2.16l0.01,0.13l-0.3-2.41l0.02,0.09l-0.58-2.62l0.02,0.07l-0.81-2.78l0.02,0.05l-1.01-2.91l0.01,0.04l-1.17-2.99
	l0.01,0.03l-1.29-3.02l0.01,0.02l-1.38-3.02l0.01,0.02l-1.42-2.97l0.01,0.01l-1.42-2.88l0,0.01l-1.38-2.74l-1.03-2.08l1.79-0.89
	l1.03,2.08l0-0.01l1.38,2.75l1.42,2.89l1.42,2.98l1.38,3.04l1.31,3.05l1.19,3.02l1.03,2.95l0.83,2.84l0.59,2.7l0.31,2.52l-0.02,2.3
	l-0.36,2.18l-0.63,2.19l-0.88,2.19l-1.09,2.16l-1.27,2.12l-1.43,2.05l-1.56,1.97l-1.66,1.86l-1.74,1.73l-1.79,1.57l-1.81,1.4
	l-1.82,1.2l-1.8,0.98l-1.76,0.73l-1.71,0.46l-1.63,0.14l-1.63-0.21l-1.7-0.53l-1.75-0.8l-1.79-1.05l-1.81-1.27l-1.81-1.46
	l-1.79-1.64l-1.74-1.79l-1.66-1.92l-1.56-2.03l-1.43-2.12l-1.27-2.18l-1.09-2.23l-0.88-2.25l-0.63-2.25l-0.36-2.23l-0.09-2.24
	l0.12-2.31l0.32-2.39l0.5-2.45l0.67-2.52l0.82-2.57l0.96-2.63l1.08-2.68l1.19-2.72l1.28-2.76l2.79-5.61l3.01-5.7l3.11-5.74
	L672.74,395.96z"/>
<text transform="matrix(1 0 0 1 396.4004 268.0801)" class="st3 st5">“(”, →P</text>
<text transform="matrix(1 0 0 1 652.3291 484.7998)" class="st3 st5">“)”, P →</text>
<text transform="matrix(1 0 0 1 682.9141 262.7998)" class="st3 st5">“)”, P →</text>
<text transform="matrix(1 0 0 1 347.6816 484.7998)" class="st3 st5">“(”, →P</text>
<text transform="matrix(1 0 0 1 260.4365 333.3604)" class="st3 st5">“(”, →P</text>
</svg>
